<?xml version="1.0" encoding="UTF-8" standalone="no"?>
<!DOCTYPE svg PUBLIC "-//W3C//DTD SVG 1.1//EN"
 "http://www.w3.org/Graphics/SVG/1.1/DTD/svg11.dtd">
<!-- Generated by graphviz version 2.38.0 (20140413.2041)
 -->
<!-- Title: G Pages: 1 -->
<svg width="755pt" height="236pt"
 viewBox="0.00 0.00 754.67 236.00" xmlns="http://www.w3.org/2000/svg" xmlns:xlink="http://www.w3.org/1999/xlink">
<g id="graph0" class="graph" transform="scale(1 1) rotate(0) translate(4 232)">
<title>G</title>
<polygon fill="white" stroke="none" points="-4,4 -4,-232 750.674,-232 750.674,4 -4,4"/>
<!-- c2423 -->
<g id="node1" class="node"><title>c2423</title>
<g id="a_node1"><a xlink:href="TicketService.html" xlink:title="&lt;TABLE&gt;">
</a>
</g>
<g id="a_node1_0"><a xlink:href="TicketService.html" xlink:title="klm.pstryk.site.TicketService" target="_parent">
<polygon fill="none" stroke="black" points="463.174,-198 463.174,-228 530.174,-228 530.174,-198 463.174,-198"/>
<text text-anchor="start" x="471.174" y="-216.8" font-family="Arial" font-size="9.00"> «interface» </text>
<text text-anchor="start" x="467.174" y="-204.8" font-family="Arial" font-size="9.00"> TicketService </text>
</a>
</g>
<g><a xlink:href="TicketService.html" xlink:title="&lt;TABLE&gt;">
</a>
</g>
</g>
<!-- c2439 -->
<g id="node2" class="node"><title>c2439</title>
<g id="a_node2"><a xlink:href="DefaultTicketService.html" xlink:title="&lt;TABLE&gt;">
</a>
</g>
<g id="a_node2_1"><a xlink:href="DefaultTicketService.html" xlink:title="klm.pstryk.site.DefaultTicketService" target="_parent">
<polygon fill="lemonChiffon" stroke="none" points="448.174,-144 448.174,-162 544.174,-162 544.174,-144 448.174,-144"/>
<polygon fill="none" stroke="black" points="448.174,-144 448.174,-162 544.174,-162 544.174,-144 448.174,-144"/>
<text text-anchor="start" x="452.174" y="-150.8" font-family="Arial" font-size="9.00"> DefaultTicketService </text>
</a>
</g>
<g><a xlink:href="DefaultTicketService.html" xlink:title="&lt;TABLE&gt;">
</a>
</g>
</g>
<!-- c2423&#45;&gt;c2439 -->
<g id="edge1" class="edge"><title>c2423&#45;&gt;c2439</title>
<path fill="none" stroke="black" stroke-dasharray="5,2" d="M496.174,-187.7C496.174,-178.512 496.174,-168.678 496.174,-162.019"/>
<polygon fill="none" stroke="black" points="492.674,-187.96 496.174,-197.96 499.674,-187.96 492.674,-187.96"/>
</g>
<!-- c2462 -->
<g id="node3" class="node"><title>c2462</title>
<g id="a_node3"><a xlink:href="entities/TicketComment.html" xlink:title="&lt;TABLE&gt;">
</a>
</g>
<g id="a_node3_2"><a xlink:href="entities/TicketComment.html" xlink:title="klm.pstryk.site.entities.TicketComment" target="_parent">
<polygon fill="none" stroke="black" points="18.1737,-72 18.1737,-102 105.174,-102 105.174,-72 18.1737,-72"/>
<text text-anchor="start" x="26.6737" y="-90.8" font-family="Arial" font-size="9.00"> TicketComment </text>
<text text-anchor="start" x="22.1737" y="-79.8" font-family="Arial" font-size="9.00"> </text>
<text text-anchor="start" x="25.1737" y="-79.8" font-family="Arial" font-size="7.00">klm.pstryk.site.entities</text>
<text text-anchor="start" x="98.1737" y="-79.8" font-family="Arial" font-size="9.00"> </text>
</a>
</g>
<g><a xlink:href="entities/TicketComment.html" xlink:title="&lt;TABLE&gt;">
</a>
</g>
</g>
<!-- c2423&#45;&gt;c2462 -->
<g id="edge9" class="edge"><title>c2423&#45;&gt;c2462</title>
<path fill="none" stroke="black" stroke-dasharray="5,2" d="M462.535,-204.092C395.455,-188.053 240.544,-149.667 113.174,-108 110.761,-107.211 108.296,-106.373 105.815,-105.505"/>
<polygon fill="black" stroke="black" points="96.2435,-102.046 107.178,-101.213 100.946,-103.745 105.648,-105.445 105.648,-105.445 105.648,-105.445 100.946,-103.745 104.119,-109.677 96.2435,-102.046 96.2435,-102.046"/>
</g>
<!-- c2463 -->
<g id="node4" class="node"><title>c2463</title>
<g id="a_node4"><a xlink:href="entities/Ticket.html" xlink:title="&lt;TABLE&gt;">
</a>
</g>
<g id="a_node4_3"><a xlink:href="entities/Ticket.html" xlink:title="klm.pstryk.site.entities.Ticket" target="_parent">
<polygon fill="none" stroke="black" points="123.174,-72 123.174,-102 210.174,-102 210.174,-72 123.174,-72"/>
<text text-anchor="start" x="152.174" y="-90.8" font-family="Arial" font-size="9.00"> Ticket </text>
<text text-anchor="start" x="127.174" y="-79.8" font-family="Arial" font-size="9.00"> </text>
<text text-anchor="start" x="130.174" y="-79.8" font-family="Arial" font-size="7.00">klm.pstryk.site.entities</text>
<text text-anchor="start" x="203.174" y="-79.8" font-family="Arial" font-size="9.00"> </text>
</a>
</g>
<g><a xlink:href="entities/Ticket.html" xlink:title="&lt;TABLE&gt;">
</a>
</g>
</g>
<!-- c2423&#45;&gt;c2463 -->
<g id="edge10" class="edge"><title>c2423&#45;&gt;c2463</title>
<path fill="none" stroke="black" stroke-dasharray="5,2" d="M462.481,-199.371C410.329,-179.818 306.911,-141.025 219.174,-108 217.117,-107.226 215.016,-106.435 212.893,-105.635"/>
<polygon fill="black" stroke="black" points="203.523,-102.103 214.468,-101.419 208.202,-103.867 212.881,-105.63 212.881,-105.63 212.881,-105.63 208.202,-103.867 211.294,-109.841 203.523,-102.103 203.523,-102.103"/>
</g>
<!-- c2464 -->
<g id="node5" class="node"><title>c2464</title>
<g id="a_node5"><a xlink:href="entities/Attachment.html" xlink:title="&lt;TABLE&gt;">
</a>
</g>
<g id="a_node5_4"><a xlink:href="entities/Attachment.html" xlink:title="klm.pstryk.site.entities.Attachment" target="_parent">
<polygon fill="none" stroke="black" points="70.1737,-0 70.1737,-30 157.174,-30 157.174,-0 70.1737,-0"/>
<text text-anchor="start" x="88.1737" y="-18.8" font-family="Arial" font-size="9.00"> Attachment </text>
<text text-anchor="start" x="74.1737" y="-7.8" font-family="Arial" font-size="9.00"> </text>
<text text-anchor="start" x="77.1737" y="-7.8" font-family="Arial" font-size="7.00">klm.pstryk.site.entities</text>
<text text-anchor="start" x="150.174" y="-7.8" font-family="Arial" font-size="9.00"> </text>
</a>
</g>
<g><a xlink:href="entities/Attachment.html" xlink:title="&lt;TABLE&gt;">
</a>
</g>
</g>
<!-- c2423&#45;&gt;c2464 -->
<g id="edge8" class="edge"><title>c2423&#45;&gt;c2464</title>
<path fill="none" stroke="black" stroke-dasharray="5,2" d="M462.566,-210.205C361.693,-204.043 64.9922,-179.994 8.17372,-108 -3.3906,-93.347 -1.79213,-81.7837 8.17372,-66 19.7531,-47.6607 40.1029,-35.9085 59.8238,-28.4444"/>
<polygon fill="black" stroke="black" points="69.4133,-25.1145 61.4427,-32.6459 64.6899,-26.7547 59.9666,-28.3948 59.9666,-28.3948 59.9666,-28.3948 64.6899,-26.7547 58.4904,-24.1438 69.4133,-25.1145 69.4133,-25.1145"/>
</g>
<!-- c2439&#45;&gt;c2462 -->
<g id="edge12" class="edge"><title>c2439&#45;&gt;c2462</title>
<path fill="none" stroke="black" stroke-dasharray="5,2" d="M448.02,-150.363C374.751,-147.005 231.311,-137.007 113.174,-108 110.027,-107.227 106.813,-106.314 103.604,-105.311"/>
<polygon fill="black" stroke="black" points="94.0614,-102.08 104.976,-101.025 98.7974,-103.684 103.533,-105.287 103.533,-105.287 103.533,-105.287 98.7974,-103.684 102.09,-109.55 94.0614,-102.08 94.0614,-102.08"/>
</g>
<!-- c2439&#45;&gt;c2463 -->
<g id="edge13" class="edge"><title>c2439&#45;&gt;c2463</title>
<path fill="none" stroke="black" stroke-dasharray="5,2" d="M448.015,-147.355C392.267,-141.289 298.011,-128.903 219.174,-108 216.181,-107.206 213.122,-106.306 210.06,-105.336"/>
<polygon fill="black" stroke="black" points="200.34,-102.051 211.254,-100.989 205.076,-103.652 209.813,-105.252 209.813,-105.252 209.813,-105.252 205.076,-103.652 208.372,-109.516 200.34,-102.051 200.34,-102.051"/>
</g>
<!-- c2439&#45;&gt;c2464 -->
<g id="edge11" class="edge"><title>c2439&#45;&gt;c2464</title>
<path fill="none" stroke="black" stroke-dasharray="5,2" d="M462.099,-143.965C437.361,-137.062 403.865,-125.431 378.174,-108 357.343,-93.8667 361.943,-78.6405 340.174,-66 286.529,-34.8503 215.46,-23.0813 167.235,-18.6494"/>
<polygon fill="black" stroke="black" points="157.004,-17.7876 167.346,-14.143 161.986,-18.2074 166.969,-18.6271 166.969,-18.6271 166.969,-18.6271 161.986,-18.2074 166.591,-23.1112 157.004,-17.7876 157.004,-17.7876"/>
</g>
<!-- c2465 -->
<g id="node6" class="node"><title>c2465</title>
<g id="a_node6"><a xlink:href="repositories/UserRepository.html" xlink:title="&lt;TABLE&gt;">
</a>
</g>
<g id="a_node6_5"><a xlink:href="repositories/UserRepository.html" xlink:title="klm.pstryk.site.repositories.UserRepository" target="_parent">
<polygon fill="none" stroke="black" points="387.174,-66 387.174,-108 487.174,-108 487.174,-66 387.174,-66"/>
<text text-anchor="start" x="411.674" y="-96.8" font-family="Arial" font-size="9.00"> «interface» </text>
<text text-anchor="start" x="402.174" y="-84.8" font-family="Arial" font-size="9.00"> UserRepository </text>
<text text-anchor="start" x="391.174" y="-73.8" font-family="Arial" font-size="9.00"> </text>
<text text-anchor="start" x="394.174" y="-73.8" font-family="Arial" font-size="7.00">klm.pstryk.site.repositories</text>
<text text-anchor="start" x="480.174" y="-73.8" font-family="Arial" font-size="9.00"> </text>
</a>
</g>
<g><a xlink:href="repositories/UserRepository.html" xlink:title="&lt;TABLE&gt;">
</a>
</g>
</g>
<!-- c2439&#45;&gt;c2465 -->
<g id="edge5" class="edge"><title>c2439&#45;&gt;c2465</title>
<path fill="none" stroke="black" d="M488.701,-143.894C482.129,-136.765 472.166,-125.958 462.748,-115.741"/>
<polygon fill="black" stroke="black" points="455.716,-108.114 465.803,-112.416 459.105,-111.79 462.495,-115.467 462.495,-115.467 462.495,-115.467 459.105,-111.79 459.186,-118.517 455.716,-108.114 455.716,-108.114"/>
</g>
<!-- c2467 -->
<g id="node7" class="node"><title>c2467</title>
<g id="a_node7"><a xlink:href="repositories/TicketRepository.html" xlink:title="&lt;TABLE&gt;">
</a>
</g>
<g id="a_node7_6"><a xlink:href="repositories/TicketRepository.html" xlink:title="klm.pstryk.site.repositories.TicketRepository" target="_parent">
<polygon fill="none" stroke="black" points="505.174,-66 505.174,-108 605.174,-108 605.174,-66 505.174,-66"/>
<text text-anchor="start" x="529.674" y="-96.8" font-family="Arial" font-size="9.00"> «interface» </text>
<text text-anchor="start" x="518.674" y="-84.8" font-family="Arial" font-size="9.00"> TicketRepository </text>
<text text-anchor="start" x="509.174" y="-73.8" font-family="Arial" font-size="9.00"> </text>
<text text-anchor="start" x="512.174" y="-73.8" font-family="Arial" font-size="7.00">klm.pstryk.site.repositories</text>
<text text-anchor="start" x="598.174" y="-73.8" font-family="Arial" font-size="9.00"> </text>
</a>
</g>
<g><a xlink:href="repositories/TicketRepository.html" xlink:title="&lt;TABLE&gt;">
</a>
</g>
</g>
<!-- c2439&#45;&gt;c2467 -->
<g id="edge2" class="edge"><title>c2439&#45;&gt;c2467</title>
<path fill="none" stroke="black" d="M503.646,-143.894C510.219,-136.765 520.181,-125.958 529.6,-115.741"/>
<polygon fill="black" stroke="black" points="536.631,-108.114 533.162,-118.517 533.242,-111.79 529.853,-115.467 529.853,-115.467 529.853,-115.467 533.242,-111.79 526.544,-112.416 536.631,-108.114 536.631,-108.114"/>
</g>
<!-- c2468 -->
<g id="node8" class="node"><title>c2468</title>
<g id="a_node8"><a xlink:href="repositories/TicketCommentRepository.html" xlink:title="&lt;TABLE&gt;">
</a>
</g>
<g id="a_node8_7"><a xlink:href="repositories/TicketCommentRepository.html" xlink:title="klm.pstryk.site.repositories.TicketCommentRepository" target="_parent">
<polygon fill="none" stroke="black" points="624.174,-66 624.174,-108 747.174,-108 747.174,-66 624.174,-66"/>
<text text-anchor="start" x="660.174" y="-96.8" font-family="Arial" font-size="9.00"> «interface» </text>
<text text-anchor="start" x="628.174" y="-84.8" font-family="Arial" font-size="9.00"> TicketCommentRepository </text>
<text text-anchor="start" x="639.674" y="-73.8" font-family="Arial" font-size="9.00"> </text>
<text text-anchor="start" x="642.674" y="-73.8" font-family="Arial" font-size="7.00">klm.pstryk.site.repositories</text>
<text text-anchor="start" x="728.674" y="-73.8" font-family="Arial" font-size="9.00"> </text>
</a>
</g>
<g><a xlink:href="repositories/TicketCommentRepository.html" xlink:title="&lt;TABLE&gt;">
</a>
</g>
</g>
<!-- c2439&#45;&gt;c2468 -->
<g id="edge3" class="edge"><title>c2439&#45;&gt;c2468</title>
<path fill="none" stroke="black" d="M520.111,-143.894C544.159,-135.751 582.371,-122.811 615.975,-111.432"/>
<polygon fill="black" stroke="black" points="625.774,-108.114 617.746,-115.584 621.038,-109.718 616.302,-111.322 616.302,-111.322 616.302,-111.322 621.038,-109.718 614.859,-107.059 625.774,-108.114 625.774,-108.114"/>
</g>
<!-- c2471 -->
<g id="node9" class="node"><title>c2471</title>
<g id="a_node9"><a xlink:href="repositories/AttachmentRepository.html" xlink:title="&lt;TABLE&gt;">
</a>
</g>
<g id="a_node9_8"><a xlink:href="repositories/AttachmentRepository.html" xlink:title="klm.pstryk.site.repositories.AttachmentRepository" target="_parent">
<polygon fill="none" stroke="black" points="228.174,-66 228.174,-108 331.174,-108 331.174,-66 228.174,-66"/>
<text text-anchor="start" x="254.174" y="-96.8" font-family="Arial" font-size="9.00"> «interface» </text>
<text text-anchor="start" x="232.174" y="-84.8" font-family="Arial" font-size="9.00"> AttachmentRepository </text>
<text text-anchor="start" x="233.674" y="-73.8" font-family="Arial" font-size="9.00"> </text>
<text text-anchor="start" x="236.674" y="-73.8" font-family="Arial" font-size="7.00">klm.pstryk.site.repositories</text>
<text text-anchor="start" x="322.674" y="-73.8" font-family="Arial" font-size="9.00"> </text>
</a>
</g>
<g><a xlink:href="repositories/AttachmentRepository.html" xlink:title="&lt;TABLE&gt;">
</a>
</g>
</g>
<!-- c2439&#45;&gt;c2471 -->
<g id="edge4" class="edge"><title>c2439&#45;&gt;c2471</title>
<path fill="none" stroke="black" d="M468.317,-143.979C437.997,-135.227 388.099,-120.757 345.174,-108 343.556,-107.519 341.917,-107.031 340.263,-106.537"/>
<polygon fill="black" stroke="black" points="330.68,-103.666 341.551,-102.226 335.47,-105.101 340.26,-106.536 340.26,-106.536 340.26,-106.536 335.47,-105.101 338.968,-110.847 330.68,-103.666 330.68,-103.666"/>
</g>
<!-- c2462&#45;&gt;c2464 -->
<g id="edge6" class="edge"><title>c2462&#45;&gt;c2464</title>
<path fill="none" stroke="black" d="M71.6967,-71.8345C78.8154,-62.2515 88.3679,-49.3924 96.5112,-38.4303"/>
<polygon fill="black" stroke="black" points="102.666,-30.1445 100.315,-40.8554 99.6848,-34.1582 96.7031,-38.1719 96.7031,-38.1719 96.7031,-38.1719 99.6848,-34.1582 93.0908,-35.4885 102.666,-30.1445 102.666,-30.1445"/>
<text text-anchor="middle" x="100.666" y="-33.1445" font-family="Arial" font-size="10.00">*</text>
</g>
<!-- c2463&#45;&gt;c2464 -->
<g id="edge7" class="edge"><title>c2463&#45;&gt;c2464</title>
<path fill="none" stroke="black" d="M155.448,-71.8345C148.193,-62.2515 138.457,-49.3924 130.157,-38.4303"/>
<polygon fill="black" stroke="black" points="123.883,-30.1445 133.507,-35.4007 126.901,-34.1308 129.92,-38.1171 129.92,-38.1171 129.92,-38.1171 126.901,-34.1308 126.332,-40.8335 123.883,-30.1445 123.883,-30.1445"/>
<text text-anchor="middle" x="121.883" y="-33.1445" font-family="Arial" font-size="10.00">*</text>
</g>
</g>
</svg>
