<?xml version="1.0" encoding="UTF-8" standalone="no"?>
<!DOCTYPE svg PUBLIC "-//W3C//DTD SVG 1.1//EN"
 "http://www.w3.org/Graphics/SVG/1.1/DTD/svg11.dtd">
<!-- Generated by graphviz version 2.38.0 (20140413.2041)
 -->
<!-- Title: G Pages: 1 -->
<svg width="2515pt" height="146pt"
 viewBox="0.00 0.00 2515.00 146.00" xmlns="http://www.w3.org/2000/svg" xmlns:xlink="http://www.w3.org/1999/xlink">
<g id="graph0" class="graph" transform="scale(1 1) rotate(0) translate(4 142)">
<title>G</title>
<polygon fill="white" stroke="none" points="-4,4 -4,-142 2511,-142 2511,4 -4,4"/>
<!-- c227 -->
<g id="node1" class="node"><title>c227</title>
<g id="a_node1"><a xlink:href="TimeUtils.html" xlink:title="&lt;TABLE&gt;">
</a>
</g>
<g id="a_node1_0"><a xlink:href="TimeUtils.html" xlink:title="klm.pstryk.site.TimeUtils" target="_parent">
<polygon fill="none" stroke="black" points="0.5,-120 0.5,-138 53.5,-138 53.5,-120 0.5,-120"/>
<text text-anchor="start" x="4.5" y="-126.8" font-family="Arial" font-size="9.00"> TimeUtils </text>
</a>
</g>
<g><a xlink:href="TimeUtils.html" xlink:title="&lt;TABLE&gt;">
</a>
</g>
</g>
<!-- c228 -->
<g id="node2" class="node"><title>c228</title>
<g id="a_node2"><a xlink:href="TicketWebServiceList.html" xlink:title="&lt;TABLE&gt;">
</a>
</g>
<g id="a_node2_1"><a xlink:href="TicketWebServiceList.html" xlink:title="klm.pstryk.site.TicketWebServiceList" target="_parent">
<polygon fill="none" stroke="black" points="71.5,-120 71.5,-138 172.5,-138 172.5,-120 71.5,-120"/>
<text text-anchor="start" x="75.5" y="-126.8" font-family="Arial" font-size="9.00"> TicketWebServiceList </text>
</a>
</g>
<g><a xlink:href="TicketWebServiceList.html" xlink:title="&lt;TABLE&gt;">
</a>
</g>
</g>
<!-- c229 -->
<g id="node3" class="node"><title>c229</title>
<g id="a_node3"><a xlink:href="TicketSoapEndpoint.html" xlink:title="&lt;TABLE&gt;">
</a>
</g>
<g id="a_node3_2"><a xlink:href="TicketSoapEndpoint.html" xlink:title="klm.pstryk.site.TicketSoapEndpoint" target="_parent">
<polygon fill="none" stroke="black" points="190.5,-120 190.5,-138 286.5,-138 286.5,-120 190.5,-120"/>
<text text-anchor="start" x="194.5" y="-126.8" font-family="Arial" font-size="9.00"> TicketSoapEndpoint </text>
</a>
</g>
<g><a xlink:href="TicketSoapEndpoint.html" xlink:title="&lt;TABLE&gt;">
</a>
</g>
</g>
<!-- c231 -->
<g id="node5" class="node"><title>c231</title>
<g id="a_node5"><a xlink:href="TicketService.html" xlink:title="&lt;TABLE&gt;">
</a>
</g>
<g id="a_node5_3"><a xlink:href="TicketService.html" xlink:title="klm.pstryk.site.TicketService" target="_parent">
<polygon fill="none" stroke="black" points="318.5,-54 318.5,-84 385.5,-84 385.5,-54 318.5,-54"/>
<text text-anchor="start" x="326.5" y="-72.8" font-family="Arial" font-size="9.00"> «interface» </text>
<text text-anchor="start" x="322.5" y="-60.8" font-family="Arial" font-size="9.00"> TicketService </text>
</a>
</g>
<g><a xlink:href="TicketService.html" xlink:title="&lt;TABLE&gt;">
</a>
</g>
</g>
<!-- c229&#45;&gt;c231 -->
<g id="edge4" class="edge"><title>c229&#45;&gt;c231</title>
<path fill="none" stroke="black" d="M254.212,-119.935C269.884,-111.892 294.52,-99.2465 315.079,-88.6941"/>
<polygon fill="black" stroke="black" points="324.191,-84.0171 317.349,-92.5869 319.743,-86.3003 315.294,-88.5835 315.294,-88.5835 315.294,-88.5835 319.743,-86.3003 313.239,-84.58 324.191,-84.0171 324.191,-84.0171"/>
</g>
<!-- c230 -->
<g id="node4" class="node"><title>c230</title>
<g id="a_node4"><a xlink:href="TicketSoapEndpoint.CreateTicket.html" xlink:title="&lt;TABLE&gt;">
</a>
</g>
<g id="a_node4_4"><a xlink:href="TicketSoapEndpoint.CreateTicket.html" xlink:title="klm.pstryk.site.TicketSoapEndpoint.CreateTicket" target="_parent">
<polygon fill="none" stroke="black" points="512.5,-120 512.5,-138 662.5,-138 662.5,-120 512.5,-120"/>
<text text-anchor="start" x="516.5" y="-126.8" font-family="Arial" font-size="9.00"> TicketSoapEndpoint.CreateTicket </text>
</a>
</g>
<g><a xlink:href="TicketSoapEndpoint.CreateTicket.html" xlink:title="&lt;TABLE&gt;">
</a>
</g>
</g>
<!-- c247 -->
<g id="node21" class="node"><title>c247</title>
<g id="a_node21"><a xlink:href="DefaultTicketService.html" xlink:title="&lt;TABLE&gt;">
</a>
</g>
<g id="a_node21_5"><a xlink:href="DefaultTicketService.html" xlink:title="klm.pstryk.site.DefaultTicketService" target="_parent">
<polygon fill="none" stroke="black" points="303.5,-0 303.5,-18 399.5,-18 399.5,-0 303.5,-0"/>
<text text-anchor="start" x="307.5" y="-6.8" font-family="Arial" font-size="9.00"> DefaultTicketService </text>
</a>
</g>
<g><a xlink:href="DefaultTicketService.html" xlink:title="&lt;TABLE&gt;">
</a>
</g>
</g>
<!-- c231&#45;&gt;c247 -->
<g id="edge1" class="edge"><title>c231&#45;&gt;c247</title>
<path fill="none" stroke="black" stroke-dasharray="5,2" d="M351.5,-43.7001C351.5,-34.5123 351.5,-24.6778 351.5,-18.019"/>
<polygon fill="none" stroke="black" points="348,-43.9598 351.5,-53.9598 355,-43.9599 348,-43.9598"/>
</g>
<!-- c232 -->
<g id="node6" class="node"><title>c232</title>
<g id="a_node6"><a xlink:href="TicketRestEndpoint.html" xlink:title="&lt;TABLE&gt;">
</a>
</g>
<g id="a_node6_6"><a xlink:href="TicketRestEndpoint.html" xlink:title="klm.pstryk.site.TicketRestEndpoint" target="_parent">
<polygon fill="none" stroke="black" points="305.5,-120 305.5,-138 398.5,-138 398.5,-120 305.5,-120"/>
<text text-anchor="start" x="309.5" y="-126.8" font-family="Arial" font-size="9.00"> TicketRestEndpoint </text>
</a>
</g>
<g><a xlink:href="TicketRestEndpoint.html" xlink:title="&lt;TABLE&gt;">
</a>
</g>
</g>
<!-- c232&#45;&gt;c231 -->
<g id="edge5" class="edge"><title>c232&#45;&gt;c231</title>
<path fill="none" stroke="black" d="M351.5,-119.935C351.5,-113.313 351.5,-103.572 351.5,-94.4482"/>
<polygon fill="black" stroke="black" points="351.5,-84.2441 356,-94.2441 351.5,-89.2441 351.5,-94.2441 351.5,-94.2441 351.5,-94.2441 351.5,-89.2441 347,-94.2441 351.5,-84.2441 351.5,-84.2441"/>
</g>
<!-- c233 -->
<g id="node7" class="node"><title>c233</title>
<g id="a_node7"><a xlink:href="TicketRestEndpoint.TicketForm.html" xlink:title="&lt;TABLE&gt;">
</a>
</g>
<g id="a_node7_7"><a xlink:href="TicketRestEndpoint.TicketForm.html" xlink:title="klm.pstryk.site.TicketRestEndpoint.TicketForm" target="_parent">
<polygon fill="none" stroke="black" points="681.5,-120 681.5,-138 822.5,-138 822.5,-120 681.5,-120"/>
<text text-anchor="start" x="685.5" y="-126.8" font-family="Arial" font-size="9.00"> TicketRestEndpoint.TicketForm </text>
</a>
</g>
<g><a xlink:href="TicketRestEndpoint.TicketForm.html" xlink:title="&lt;TABLE&gt;">
</a>
</g>
</g>
<!-- c234 -->
<g id="node8" class="node"><title>c234</title>
<g id="a_node8"><a xlink:href="TicketController.html" xlink:title="&lt;TABLE&gt;">
</a>
</g>
<g id="a_node8_8"><a xlink:href="TicketController.html" xlink:title="klm.pstryk.site.TicketController" target="_parent">
<polygon fill="none" stroke="black" points="416.5,-120 416.5,-138 494.5,-138 494.5,-120 416.5,-120"/>
<text text-anchor="start" x="420.5" y="-126.8" font-family="Arial" font-size="9.00"> TicketController </text>
</a>
</g>
<g><a xlink:href="TicketController.html" xlink:title="&lt;TABLE&gt;">
</a>
</g>
</g>
<!-- c234&#45;&gt;c231 -->
<g id="edge6" class="edge"><title>c234&#45;&gt;c231</title>
<path fill="none" stroke="black" d="M441.039,-119.935C426.746,-111.964 404.35,-99.474 385.533,-88.9798"/>
<polygon fill="black" stroke="black" points="376.634,-84.0171 387.56,-84.9577 381.001,-86.4524 385.368,-88.8878 385.368,-88.8878 385.368,-88.8878 381.001,-86.4524 383.176,-92.8179 376.634,-84.0171 376.634,-84.0171"/>
</g>
<!-- c235 -->
<g id="node9" class="node"><title>c235</title>
<g id="a_node9"><a xlink:href="TicketController.TicketForm.html" xlink:title="&lt;TABLE&gt;">
</a>
</g>
<g id="a_node9_9"><a xlink:href="TicketController.TicketForm.html" xlink:title="klm.pstryk.site.TicketController.TicketForm" target="_parent">
<polygon fill="none" stroke="black" points="840.5,-120 840.5,-138 966.5,-138 966.5,-120 840.5,-120"/>
<text text-anchor="start" x="844.5" y="-126.8" font-family="Arial" font-size="9.00"> TicketController.TicketForm </text>
</a>
</g>
<g><a xlink:href="TicketController.TicketForm.html" xlink:title="&lt;TABLE&gt;">
</a>
</g>
</g>
<!-- c236 -->
<g id="node10" class="node"><title>c236</title>
<g id="a_node10"><a xlink:href="TicketController.CommentForm.html" xlink:title="&lt;TABLE&gt;">
</a>
</g>
<g id="a_node10_10"><a xlink:href="TicketController.CommentForm.html" xlink:title="klm.pstryk.site.TicketController.CommentForm" target="_parent">
<polygon fill="none" stroke="black" points="985.5,-120 985.5,-138 1128.5,-138 1128.5,-120 985.5,-120"/>
<text text-anchor="start" x="989.5" y="-126.8" font-family="Arial" font-size="9.00"> TicketController.CommentForm </text>
</a>
</g>
<g><a xlink:href="TicketController.CommentForm.html" xlink:title="&lt;TABLE&gt;">
</a>
</g>
</g>
<!-- c237 -->
<g id="node11" class="node"><title>c237</title>
<g id="a_node11"><a xlink:href="TicketController.SearchForm.html" xlink:title="&lt;TABLE&gt;">
</a>
</g>
<g id="a_node11_11"><a xlink:href="TicketController.SearchForm.html" xlink:title="klm.pstryk.site.TicketController.SearchForm" target="_parent">
<polygon fill="none" stroke="black" points="1146.5,-120 1146.5,-138 1277.5,-138 1277.5,-120 1146.5,-120"/>
<text text-anchor="start" x="1150.5" y="-126.8" font-family="Arial" font-size="9.00"> TicketController.SearchForm </text>
</a>
</g>
<g><a xlink:href="TicketController.SearchForm.html" xlink:title="&lt;TABLE&gt;">
</a>
</g>
</g>
<!-- c238 -->
<g id="node12" class="node"><title>c238</title>
<g id="a_node12"><a xlink:href="SessionRegistry.html" xlink:title="&lt;TABLE&gt;">
</a>
</g>
<g id="a_node12_12"><a xlink:href="SessionRegistry.html" xlink:title="klm.pstryk.site.SessionRegistry" target="_parent">
<polygon fill="none" stroke="black" points="1350.5,-54 1350.5,-84 1431.5,-84 1431.5,-54 1350.5,-54"/>
<text text-anchor="start" x="1365.5" y="-72.8" font-family="Arial" font-size="9.00"> «interface» </text>
<text text-anchor="start" x="1354.5" y="-60.8" font-family="Arial" font-size="9.00"> SessionRegistry </text>
</a>
</g>
<g><a xlink:href="SessionRegistry.html" xlink:title="&lt;TABLE&gt;">
</a>
</g>
</g>
<!-- c248 -->
<g id="node22" class="node"><title>c248</title>
<g id="a_node22"><a xlink:href="DefaultSessionRegistry.html" xlink:title="&lt;TABLE&gt;">
</a>
</g>
<g id="a_node22_13"><a xlink:href="DefaultSessionRegistry.html" xlink:title="klm.pstryk.site.DefaultSessionRegistry" target="_parent">
<polygon fill="none" stroke="black" points="1335.5,-0 1335.5,-18 1446.5,-18 1446.5,-0 1335.5,-0"/>
<text text-anchor="start" x="1339.5" y="-6.8" font-family="Arial" font-size="9.00"> DefaultSessionRegistry </text>
</a>
</g>
<g><a xlink:href="DefaultSessionRegistry.html" xlink:title="&lt;TABLE&gt;">
</a>
</g>
</g>
<!-- c238&#45;&gt;c248 -->
<g id="edge2" class="edge"><title>c238&#45;&gt;c248</title>
<path fill="none" stroke="black" stroke-dasharray="5,2" d="M1390.5,-43.7001C1390.5,-34.5123 1390.5,-24.6778 1390.5,-18.019"/>
<polygon fill="none" stroke="black" points="1387,-43.9598 1390.5,-53.9598 1394,-43.9599 1387,-43.9598"/>
</g>
<!-- c239 -->
<g id="node13" class="node"><title>c239</title>
<g id="a_node13"><a xlink:href="SessionListener.html" xlink:title="&lt;TABLE&gt;">
</a>
</g>
<g id="a_node13_14"><a xlink:href="SessionListener.html" xlink:title="klm.pstryk.site.SessionListener" target="_parent">
<polygon fill="none" stroke="black" points="1295.5,-120 1295.5,-138 1376.5,-138 1376.5,-120 1295.5,-120"/>
<text text-anchor="start" x="1299.5" y="-126.8" font-family="Arial" font-size="9.00"> SessionListener </text>
</a>
</g>
<g><a xlink:href="SessionListener.html" xlink:title="&lt;TABLE&gt;">
</a>
</g>
</g>
<!-- c239&#45;&gt;c238 -->
<g id="edge7" class="edge"><title>c239&#45;&gt;c238</title>
<path fill="none" stroke="black" d="M1343.15,-119.935C1350.04,-112.665 1360.5,-101.637 1369.84,-91.7916"/>
<polygon fill="black" stroke="black" points="1376.99,-84.2441 1373.38,-94.5968 1373.55,-87.8722 1370.11,-91.5004 1370.11,-91.5004 1370.11,-91.5004 1373.55,-87.8722 1366.85,-88.4039 1376.99,-84.2441 1376.99,-84.2441"/>
</g>
<!-- c240 -->
<g id="node14" class="node"><title>c240</title>
<g id="a_node14"><a xlink:href="SessionListController.html" xlink:title="&lt;TABLE&gt;">
</a>
</g>
<g id="a_node14_15"><a xlink:href="SessionListController.html" xlink:title="klm.pstryk.site.SessionListController" target="_parent">
<polygon fill="none" stroke="black" points="1394.5,-120 1394.5,-138 1497.5,-138 1497.5,-120 1394.5,-120"/>
<text text-anchor="start" x="1398.5" y="-126.8" font-family="Arial" font-size="9.00"> SessionListController </text>
</a>
</g>
<g><a xlink:href="SessionListController.html" xlink:title="&lt;TABLE&gt;">
</a>
</g>
</g>
<!-- c240&#45;&gt;c238 -->
<g id="edge8" class="edge"><title>c240&#45;&gt;c238</title>
<path fill="none" stroke="black" d="M1437.85,-119.935C1430.96,-112.665 1420.5,-101.637 1411.16,-91.7916"/>
<polygon fill="black" stroke="black" points="1404.01,-84.2441 1414.15,-88.4039 1407.45,-87.8722 1410.89,-91.5004 1410.89,-91.5004 1410.89,-91.5004 1407.45,-87.8722 1407.62,-94.5968 1404.01,-84.2441 1404.01,-84.2441"/>
</g>
<!-- c241 -->
<g id="node15" class="node"><title>c241</title>
<g id="a_node15"><a xlink:href="RestExceptionHandler.html" xlink:title="&lt;TABLE&gt;">
</a>
</g>
<g id="a_node15_16"><a xlink:href="RestExceptionHandler.html" xlink:title="klm.pstryk.site.RestExceptionHandler" target="_parent">
<polygon fill="none" stroke="black" points="1515.5,-120 1515.5,-138 1620.5,-138 1620.5,-120 1515.5,-120"/>
<text text-anchor="start" x="1519.5" y="-126.8" font-family="Arial" font-size="9.00"> RestExceptionHandler </text>
</a>
</g>
<g><a xlink:href="RestExceptionHandler.html" xlink:title="&lt;TABLE&gt;">
</a>
</g>
</g>
<!-- c242 -->
<g id="node16" class="node"><title>c242</title>
<g id="a_node16"><a xlink:href="RestExceptionHandler.ErrorItem.html" xlink:title="&lt;TABLE&gt;">
</a>
</g>
<g id="a_node16_17"><a xlink:href="RestExceptionHandler.ErrorItem.html" xlink:title="klm.pstryk.site.RestExceptionHandler.ErrorItem" target="_parent">
<polygon fill="none" stroke="black" points="1650.5,-60 1650.5,-78 1796.5,-78 1796.5,-60 1650.5,-60"/>
<text text-anchor="start" x="1654.5" y="-66.8" font-family="Arial" font-size="9.00"> RestExceptionHandler.ErrorItem </text>
</a>
</g>
<g><a xlink:href="RestExceptionHandler.ErrorItem.html" xlink:title="&lt;TABLE&gt;">
</a>
</g>
</g>
<!-- c243 -->
<g id="node17" class="node"><title>c243</title>
<g id="a_node17"><a xlink:href="RestExceptionHandler.ErrorResponse.html" xlink:title="&lt;TABLE&gt;">
</a>
</g>
<g id="a_node17_18"><a xlink:href="RestExceptionHandler.ErrorResponse.html" xlink:title="klm.pstryk.site.RestExceptionHandler.ErrorResponse" target="_parent">
<polygon fill="none" stroke="black" points="1638.5,-120 1638.5,-138 1809.5,-138 1809.5,-120 1638.5,-120"/>
<text text-anchor="start" x="1642.5" y="-126.8" font-family="Arial" font-size="9.00"> RestExceptionHandler.ErrorResponse </text>
</a>
</g>
<g><a xlink:href="RestExceptionHandler.ErrorResponse.html" xlink:title="&lt;TABLE&gt;">
</a>
</g>
</g>
<!-- c243&#45;&gt;c242 -->
<g id="edge9" class="edge"><title>c243&#45;&gt;c242</title>
<path fill="none" stroke="black" d="M1723.5,-119.935C1723.5,-111.889 1723.5,-99.2388 1723.5,-88.6846"/>
<polygon fill="black" stroke="black" points="1723.5,-78.3718 1728,-88.3717 1723.5,-83.3718 1723.5,-88.3718 1723.5,-88.3718 1723.5,-88.3718 1723.5,-83.3718 1719,-88.3718 1723.5,-78.3718 1723.5,-78.3718"/>
<text text-anchor="middle" x="1721.5" y="-81.3718" font-family="Arial" font-size="10.00">*</text>
</g>
<!-- c244 -->
<g id="node18" class="node"><title>c244</title>
<g id="a_node18"><a xlink:href="LoggingFilter.html" xlink:title="&lt;TABLE&gt;">
</a>
</g>
<g id="a_node18_19"><a xlink:href="LoggingFilter.html" xlink:title="klm.pstryk.site.LoggingFilter" target="_parent">
<polygon fill="none" stroke="black" points="1827.5,-120 1827.5,-138 1894.5,-138 1894.5,-120 1827.5,-120"/>
<text text-anchor="start" x="1831.5" y="-126.8" font-family="Arial" font-size="9.00"> LoggingFilter </text>
</a>
</g>
<g><a xlink:href="LoggingFilter.html" xlink:title="&lt;TABLE&gt;">
</a>
</g>
</g>
<!-- c245 -->
<g id="node19" class="node"><title>c245</title>
<g id="a_node19"><a xlink:href="IndexController.html" xlink:title="&lt;TABLE&gt;">
</a>
</g>
<g id="a_node19_20"><a xlink:href="IndexController.html" xlink:title="klm.pstryk.site.IndexController" target="_parent">
<polygon fill="none" stroke="black" points="1912.5,-120 1912.5,-138 1987.5,-138 1987.5,-120 1912.5,-120"/>
<text text-anchor="start" x="1916.5" y="-126.8" font-family="Arial" font-size="9.00"> IndexController </text>
</a>
</g>
<g><a xlink:href="IndexController.html" xlink:title="&lt;TABLE&gt;">
</a>
</g>
</g>
<!-- c246 -->
<g id="node20" class="node"><title>c246</title>
<g id="a_node20"><a xlink:href="DownloadingView.html" xlink:title="&lt;TABLE&gt;">
</a>
</g>
<g id="a_node20_21"><a xlink:href="DownloadingView.html" xlink:title="klm.pstryk.site.DownloadingView" target="_parent">
<polygon fill="none" stroke="black" points="2005.5,-120 2005.5,-138 2092.5,-138 2092.5,-120 2005.5,-120"/>
<text text-anchor="start" x="2009.5" y="-126.8" font-family="Arial" font-size="9.00"> DownloadingView </text>
</a>
</g>
<g><a xlink:href="DownloadingView.html" xlink:title="&lt;TABLE&gt;">
</a>
</g>
</g>
<!-- c249 -->
<g id="node23" class="node"><title>c249</title>
<g id="a_node23"><a xlink:href="DefaultAuthenticationService.html" xlink:title="&lt;TABLE&gt;">
</a>
</g>
<g id="a_node23_22"><a xlink:href="DefaultAuthenticationService.html" xlink:title="klm.pstryk.site.DefaultAuthenticationService" target="_parent">
<polygon fill="none" stroke="black" points="2100.5,-0 2100.5,-18 2230.5,-18 2230.5,-0 2100.5,-0"/>
<text text-anchor="start" x="2104.5" y="-6.8" font-family="Arial" font-size="9.00"> DefaultAuthenticationService </text>
</a>
</g>
<g><a xlink:href="DefaultAuthenticationService.html" xlink:title="&lt;TABLE&gt;">
</a>
</g>
</g>
<!-- c250 -->
<g id="node24" class="node"><title>c250</title>
<g id="a_node24"><a xlink:href="AuthenticationService.html" xlink:title="&lt;TABLE&gt;">
</a>
</g>
<g id="a_node24_23"><a xlink:href="AuthenticationService.html" xlink:title="klm.pstryk.site.AuthenticationService" target="_parent">
<polygon fill="none" stroke="black" points="2115.5,-54 2115.5,-84 2216.5,-84 2216.5,-54 2115.5,-54"/>
<text text-anchor="start" x="2140.5" y="-72.8" font-family="Arial" font-size="9.00"> «interface» </text>
<text text-anchor="start" x="2119.5" y="-60.8" font-family="Arial" font-size="9.00"> AuthenticationService </text>
</a>
</g>
<g><a xlink:href="AuthenticationService.html" xlink:title="&lt;TABLE&gt;">
</a>
</g>
</g>
<!-- c250&#45;&gt;c249 -->
<g id="edge3" class="edge"><title>c250&#45;&gt;c249</title>
<path fill="none" stroke="black" stroke-dasharray="5,2" d="M2165.5,-43.7001C2165.5,-34.5123 2165.5,-24.6778 2165.5,-18.019"/>
<polygon fill="none" stroke="black" points="2162,-43.9598 2165.5,-53.9598 2169,-43.9599 2162,-43.9598"/>
</g>
<!-- c251 -->
<g id="node25" class="node"><title>c251</title>
<g id="a_node25"><a xlink:href="AuthenticationFilter.html" xlink:title="&lt;TABLE&gt;">
</a>
</g>
<g id="a_node25_24"><a xlink:href="AuthenticationFilter.html" xlink:title="klm.pstryk.site.AuthenticationFilter" target="_parent">
<polygon fill="none" stroke="black" points="2239.5,-120 2239.5,-138 2330.5,-138 2330.5,-120 2239.5,-120"/>
<text text-anchor="start" x="2243.5" y="-126.8" font-family="Arial" font-size="9.00"> AuthenticationFilter </text>
</a>
</g>
<g><a xlink:href="AuthenticationFilter.html" xlink:title="&lt;TABLE&gt;">
</a>
</g>
</g>
<!-- c252 -->
<g id="node26" class="node"><title>c252</title>
<g id="a_node26"><a xlink:href="AuthenticationController.html" xlink:title="&lt;TABLE&gt;">
</a>
</g>
<g id="a_node26_25"><a xlink:href="AuthenticationController.html" xlink:title="klm.pstryk.site.AuthenticationController" target="_parent">
<polygon fill="none" stroke="black" points="2110.5,-120 2110.5,-138 2221.5,-138 2221.5,-120 2110.5,-120"/>
<text text-anchor="start" x="2114.5" y="-126.8" font-family="Arial" font-size="9.00"> AuthenticationController </text>
</a>
</g>
<g><a xlink:href="AuthenticationController.html" xlink:title="&lt;TABLE&gt;">
</a>
</g>
</g>
<!-- c252&#45;&gt;c250 -->
<g id="edge10" class="edge"><title>c252&#45;&gt;c250</title>
<path fill="none" stroke="black" d="M2165.5,-119.935C2165.5,-113.313 2165.5,-103.572 2165.5,-94.4482"/>
<polygon fill="black" stroke="black" points="2165.5,-84.2441 2170,-94.2441 2165.5,-89.2441 2165.5,-94.2441 2165.5,-94.2441 2165.5,-94.2441 2165.5,-89.2441 2161,-94.2441 2165.5,-84.2441 2165.5,-84.2441"/>
</g>
<!-- c253 -->
<g id="node27" class="node"><title>c253</title>
<g id="a_node27"><a xlink:href="AuthenticationController.LoginForm.html" xlink:title="&lt;TABLE&gt;">
</a>
</g>
<g id="a_node27_26"><a xlink:href="AuthenticationController.LoginForm.html" xlink:title="klm.pstryk.site.AuthenticationController.LoginForm" target="_parent">
<polygon fill="none" stroke="black" points="2348.5,-120 2348.5,-138 2507.5,-138 2507.5,-120 2348.5,-120"/>
<text text-anchor="start" x="2352.5" y="-126.8" font-family="Arial" font-size="9.00"> AuthenticationController.LoginForm </text>
</a>
</g>
<g><a xlink:href="AuthenticationController.LoginForm.html" xlink:title="&lt;TABLE&gt;">
</a>
</g>
</g>
</g>
</svg>
