<?xml version="1.0" encoding="UTF-8" standalone="no"?>
<!DOCTYPE svg PUBLIC "-//W3C//DTD SVG 1.1//EN"
 "http://www.w3.org/Graphics/SVG/1.1/DTD/svg11.dtd">
<!-- Generated by graphviz version 2.38.0 (20140413.2041)
 -->
<!-- Title: G Pages: 1 -->
<svg width="344pt" height="278pt"
 viewBox="0.00 0.00 343.50 278.00" xmlns="http://www.w3.org/2000/svg" xmlns:xlink="http://www.w3.org/1999/xlink">
<g id="graph0" class="graph" transform="scale(1 1) rotate(0) translate(4 274)">
<title>G</title>
<polygon fill="white" stroke="none" points="-4,4 -4,-274 339.5,-274 339.5,4 -4,4"/>
<!-- c5377 -->
<g id="node1" class="node"><title>c5377</title>
<g id="a_node1"><a xlink:href="TicketSoapEndpoint.html" xlink:title="&lt;TABLE&gt;">
</a>
</g>
<g id="a_node1_0"><a xlink:href="TicketSoapEndpoint.html" xlink:title="klm.pstryk.site.TicketSoapEndpoint" target="_parent">
<polygon fill="none" stroke="black" points="143.5,-252 143.5,-270 239.5,-270 239.5,-252 143.5,-252"/>
<text text-anchor="start" x="147.5" y="-258.8" font-family="Arial" font-size="9.00"> TicketSoapEndpoint </text>
</a>
</g>
<g><a xlink:href="TicketSoapEndpoint.html" xlink:title="&lt;TABLE&gt;">
</a>
</g>
</g>
<!-- c5379 -->
<g id="node2" class="node"><title>c5379</title>
<g id="a_node2"><a xlink:href="TicketService.html" xlink:title="&lt;TABLE&gt;">
</a>
</g>
<g id="a_node2_1"><a xlink:href="TicketService.html" xlink:title="klm.pstryk.site.TicketService" target="_parent">
<polygon fill="lemonChiffon" stroke="none" points="158,-186 158,-216 225,-216 225,-186 158,-186"/>
<polygon fill="none" stroke="black" points="158.5,-186 158.5,-216 225.5,-216 225.5,-186 158.5,-186"/>
<text text-anchor="start" x="166.5" y="-204.8" font-family="Arial" font-size="9.00"> «interface» </text>
<text text-anchor="start" x="162.5" y="-192.8" font-family="Arial" font-size="9.00"> TicketService </text>
</a>
</g>
<g><a xlink:href="TicketService.html" xlink:title="&lt;TABLE&gt;">
</a>
</g>
</g>
<!-- c5377&#45;&gt;c5379 -->
<g id="edge2" class="edge"><title>c5377&#45;&gt;c5379</title>
<path fill="none" stroke="black" d="M191.5,-251.935C191.5,-245.313 191.5,-235.572 191.5,-226.448"/>
<polygon fill="black" stroke="black" points="191.5,-216.244 196,-226.244 191.5,-221.244 191.5,-226.244 191.5,-226.244 191.5,-226.244 191.5,-221.244 187,-226.244 191.5,-216.244 191.5,-216.244"/>
</g>
<!-- c5419 -->
<g id="node7" class="node"><title>c5419</title>
<g id="a_node7"><a xlink:href="entities/Ticket.html" xlink:title="&lt;TABLE&gt;">
</a>
</g>
<g id="a_node7_2"><a xlink:href="entities/Ticket.html" xlink:title="klm.pstryk.site.entities.Ticket" target="_parent">
<polygon fill="none" stroke="black" points="0.5,-66 0.5,-96 87.5,-96 87.5,-66 0.5,-66"/>
<text text-anchor="start" x="29.5" y="-84.8" font-family="Arial" font-size="9.00"> Ticket </text>
<text text-anchor="start" x="4.5" y="-73.8" font-family="Arial" font-size="9.00"> </text>
<text text-anchor="start" x="7.5" y="-73.8" font-family="Arial" font-size="7.00">klm.pstryk.site.entities</text>
<text text-anchor="start" x="80.5" y="-73.8" font-family="Arial" font-size="9.00"> </text>
</a>
</g>
<g><a xlink:href="entities/Ticket.html" xlink:title="&lt;TABLE&gt;">
</a>
</g>
</g>
<!-- c5377&#45;&gt;c5419 -->
<g id="edge7" class="edge"><title>c5377&#45;&gt;c5419</title>
<path fill="none" stroke="black" stroke-dasharray="5,2" d="M182.976,-251.825C174.091,-243.179 159.9,-229.017 148.5,-216 115.292,-178.082 79.7299,-131.215 59.6883,-104.151"/>
<polygon fill="black" stroke="black" points="53.7493,-96.0962 63.3057,-101.474 56.7166,-100.121 59.6838,-104.145 59.6838,-104.145 59.6838,-104.145 56.7166,-100.121 56.0619,-106.815 53.7493,-96.0962 53.7493,-96.0962"/>
</g>
<!-- c5395 -->
<g id="node5" class="node"><title>c5395</title>
<g id="a_node5"><a xlink:href="DefaultTicketService.html" xlink:title="&lt;TABLE&gt;">
</a>
</g>
<g id="a_node5_3"><a xlink:href="DefaultTicketService.html" xlink:title="klm.pstryk.site.DefaultTicketService" target="_parent">
<polygon fill="none" stroke="black" points="143.5,-132 143.5,-150 239.5,-150 239.5,-132 143.5,-132"/>
<text text-anchor="start" x="147.5" y="-138.8" font-family="Arial" font-size="9.00"> DefaultTicketService </text>
</a>
</g>
<g><a xlink:href="DefaultTicketService.html" xlink:title="&lt;TABLE&gt;">
</a>
</g>
</g>
<!-- c5379&#45;&gt;c5395 -->
<g id="edge1" class="edge"><title>c5379&#45;&gt;c5395</title>
<path fill="none" stroke="black" stroke-dasharray="5,2" d="M191.5,-175.7C191.5,-166.512 191.5,-156.678 191.5,-150.019"/>
<polygon fill="none" stroke="black" points="188,-175.96 191.5,-185.96 195,-175.96 188,-175.96"/>
</g>
<!-- c5418 -->
<g id="node6" class="node"><title>c5418</title>
<g id="a_node6"><a xlink:href="entities/TicketComment.html" xlink:title="&lt;TABLE&gt;">
</a>
</g>
<g id="a_node6_4"><a xlink:href="entities/TicketComment.html" xlink:title="klm.pstryk.site.entities.TicketComment" target="_parent">
<polygon fill="none" stroke="black" points="144.5,-66 144.5,-96 231.5,-96 231.5,-66 144.5,-66"/>
<text text-anchor="start" x="153" y="-84.8" font-family="Arial" font-size="9.00"> TicketComment </text>
<text text-anchor="start" x="148.5" y="-73.8" font-family="Arial" font-size="9.00"> </text>
<text text-anchor="start" x="151.5" y="-73.8" font-family="Arial" font-size="7.00">klm.pstryk.site.entities</text>
<text text-anchor="start" x="224.5" y="-73.8" font-family="Arial" font-size="9.00"> </text>
</a>
</g>
<g><a xlink:href="entities/TicketComment.html" xlink:title="&lt;TABLE&gt;">
</a>
</g>
</g>
<!-- c5379&#45;&gt;c5418 -->
<g id="edge9" class="edge"><title>c5379&#45;&gt;c5418</title>
<path fill="none" stroke="black" stroke-dasharray="5,2" d="M217.038,-185.929C236.544,-173.168 258.518,-153.164 248.5,-132 242.814,-119.988 232.672,-109.897 222.27,-101.997"/>
<polygon fill="black" stroke="black" points="213.951,-96.1371 224.718,-98.2179 218.039,-99.0168 222.126,-101.897 222.126,-101.897 222.126,-101.897 218.039,-99.0168 219.535,-105.575 213.951,-96.1371 213.951,-96.1371"/>
</g>
<!-- c5379&#45;&gt;c5419 -->
<g id="edge10" class="edge"><title>c5379&#45;&gt;c5419</title>
<path fill="none" stroke="black" stroke-dasharray="5,2" d="M173.648,-185.766C147.646,-165.035 99.208,-126.416 69.3197,-102.586"/>
<polygon fill="black" stroke="black" points="61.4156,-96.284 72.0399,-98.9996 65.3251,-99.4011 69.2346,-102.518 69.2346,-102.518 69.2346,-102.518 65.3251,-99.4011 66.4292,-106.037 61.4156,-96.284 61.4156,-96.284"/>
</g>
<!-- c5420 -->
<g id="node8" class="node"><title>c5420</title>
<g id="a_node8"><a xlink:href="entities/Attachment.html" xlink:title="&lt;TABLE&gt;">
</a>
</g>
<g id="a_node8_5"><a xlink:href="entities/Attachment.html" xlink:title="klm.pstryk.site.entities.Attachment" target="_parent">
<polygon fill="none" stroke="black" points="36.5,-0 36.5,-30 123.5,-30 123.5,-0 36.5,-0"/>
<text text-anchor="start" x="54.5" y="-18.8" font-family="Arial" font-size="9.00"> Attachment </text>
<text text-anchor="start" x="40.5" y="-7.8" font-family="Arial" font-size="9.00"> </text>
<text text-anchor="start" x="43.5" y="-7.8" font-family="Arial" font-size="7.00">klm.pstryk.site.entities</text>
<text text-anchor="start" x="116.5" y="-7.8" font-family="Arial" font-size="9.00"> </text>
</a>
</g>
<g><a xlink:href="entities/Attachment.html" xlink:title="&lt;TABLE&gt;">
</a>
</g>
</g>
<!-- c5379&#45;&gt;c5420 -->
<g id="edge8" class="edge"><title>c5379&#45;&gt;c5420</title>
<path fill="none" stroke="black" stroke-dasharray="5,2" d="M225.281,-185.847C240.151,-177.709 256.119,-165.899 264.5,-150 278.485,-123.471 258.165,-83.5913 239.5,-66 210.806,-38.9566 167.67,-26.5334 133.414,-20.8298"/>
<polygon fill="black" stroke="black" points="123.094,-19.2668 133.655,-16.3151 128.038,-20.0156 132.981,-20.7644 132.981,-20.7644 132.981,-20.7644 128.038,-20.0156 132.307,-25.2136 123.094,-19.2668 123.094,-19.2668"/>
</g>
<!-- c5380 -->
<g id="node3" class="node"><title>c5380</title>
<g id="a_node3"><a xlink:href="TicketRestEndpoint.html" xlink:title="&lt;TABLE&gt;">
</a>
</g>
<g id="a_node3_6"><a xlink:href="TicketRestEndpoint.html" xlink:title="klm.pstryk.site.TicketRestEndpoint" target="_parent">
<polygon fill="none" stroke="black" points="32.5,-252 32.5,-270 125.5,-270 125.5,-252 32.5,-252"/>
<text text-anchor="start" x="36.5" y="-258.8" font-family="Arial" font-size="9.00"> TicketRestEndpoint </text>
</a>
</g>
<g><a xlink:href="TicketRestEndpoint.html" xlink:title="&lt;TABLE&gt;">
</a>
</g>
</g>
<!-- c5380&#45;&gt;c5379 -->
<g id="edge3" class="edge"><title>c5380&#45;&gt;c5379</title>
<path fill="none" stroke="black" d="M94.2122,-251.935C109.884,-243.892 134.52,-231.246 155.079,-220.694"/>
<polygon fill="black" stroke="black" points="164.191,-216.017 157.349,-224.587 159.743,-218.3 155.294,-220.583 155.294,-220.583 155.294,-220.583 159.743,-218.3 153.239,-216.58 164.191,-216.017 164.191,-216.017"/>
</g>
<!-- c5380&#45;&gt;c5419 -->
<g id="edge11" class="edge"><title>c5380&#45;&gt;c5419</title>
<path fill="none" stroke="black" stroke-dasharray="5,2" d="M76.9052,-251.889C71.872,-226.292 56.1877,-146.526 48.2311,-106.061"/>
<polygon fill="black" stroke="black" points="46.2963,-96.2212 52.6412,-105.165 47.261,-101.127 48.2257,-106.033 48.2257,-106.033 48.2257,-106.033 47.261,-101.127 43.8103,-106.902 46.2963,-96.2212 46.2963,-96.2212"/>
</g>
<!-- c5382 -->
<g id="node4" class="node"><title>c5382</title>
<g id="a_node4"><a xlink:href="TicketController.html" xlink:title="&lt;TABLE&gt;">
</a>
</g>
<g id="a_node4_7"><a xlink:href="TicketController.html" xlink:title="klm.pstryk.site.TicketController" target="_parent">
<polygon fill="none" stroke="black" points="257.5,-252 257.5,-270 335.5,-270 335.5,-252 257.5,-252"/>
<text text-anchor="start" x="261.5" y="-258.8" font-family="Arial" font-size="9.00"> TicketController </text>
</a>
</g>
<g><a xlink:href="TicketController.html" xlink:title="&lt;TABLE&gt;">
</a>
</g>
</g>
<!-- c5382&#45;&gt;c5379 -->
<g id="edge4" class="edge"><title>c5382&#45;&gt;c5379</title>
<path fill="none" stroke="black" d="M281.9,-251.935C267.469,-243.964 244.858,-231.474 225.86,-220.98"/>
<polygon fill="black" stroke="black" points="216.876,-216.017 227.805,-216.913 221.252,-218.435 225.629,-220.852 225.629,-220.852 225.629,-220.852 221.252,-218.435 223.453,-224.791 216.876,-216.017 216.876,-216.017"/>
</g>
<!-- c5395&#45;&gt;c5418 -->
<g id="edge13" class="edge"><title>c5395&#45;&gt;c5418</title>
<path fill="none" stroke="black" stroke-dasharray="5,2" d="M190.944,-131.935C190.487,-125.313 189.815,-115.572 189.186,-106.448"/>
<polygon fill="black" stroke="black" points="188.482,-96.2441 193.66,-105.911 188.826,-101.232 189.17,-106.22 189.17,-106.22 189.17,-106.22 188.826,-101.232 184.681,-106.53 188.482,-96.2441 188.482,-96.2441"/>
</g>
<!-- c5395&#45;&gt;c5419 -->
<g id="edge14" class="edge"><title>c5395&#45;&gt;c5419</title>
<path fill="none" stroke="black" stroke-dasharray="5,2" d="M170.921,-131.935C149.748,-123.638 116.082,-110.444 88.6716,-99.7024"/>
<polygon fill="black" stroke="black" points="79.2677,-96.0171 90.2202,-95.4761 83.923,-97.8415 88.5783,-99.6659 88.5783,-99.6659 88.5783,-99.6659 83.923,-97.8415 86.9363,-103.856 79.2677,-96.0171 79.2677,-96.0171"/>
</g>
<!-- c5395&#45;&gt;c5420 -->
<g id="edge12" class="edge"><title>c5395&#45;&gt;c5420</title>
<path fill="none" stroke="black" stroke-dasharray="5,2" d="M178.805,-131.9C166.607,-123.744 148.077,-110.346 134.5,-96 117.98,-78.544 102.8,-55.7137 92.5917,-38.912"/>
<polygon fill="black" stroke="black" points="87.4553,-30.2703 96.433,-36.5673 90.01,-34.5684 92.5647,-38.8665 92.5647,-38.8665 92.5647,-38.8665 90.01,-34.5684 88.6964,-41.1657 87.4553,-30.2703 87.4553,-30.2703"/>
</g>
<!-- c5418&#45;&gt;c5420 -->
<g id="edge5" class="edge"><title>c5418&#45;&gt;c5420</title>
<path fill="none" stroke="black" d="M163.799,-65.9549C148.606,-56.9515 128.681,-45.1442 112.017,-35.2694"/>
<polygon fill="black" stroke="black" points="103.146,-30.0123 114.043,-31.2391 107.447,-32.5613 111.749,-35.1104 111.749,-35.1104 111.749,-35.1104 107.447,-32.5613 109.455,-38.9817 103.146,-30.0123 103.146,-30.0123"/>
<text text-anchor="middle" x="101.146" y="-33.0123" font-family="Arial" font-size="10.00">*</text>
</g>
<!-- c5419&#45;&gt;c5420 -->
<g id="edge6" class="edge"><title>c5419&#45;&gt;c5420</title>
<path fill="none" stroke="black" d="M51.4896,-65.7963C55.9173,-57.9248 61.53,-47.9467 66.5665,-38.9928"/>
<polygon fill="black" stroke="black" points="71.5328,-30.164 70.5522,-41.0859 69.0814,-34.5219 66.6301,-38.8797 66.6301,-38.8797 66.6301,-38.8797 69.0814,-34.5219 62.708,-36.6735 71.5328,-30.164 71.5328,-30.164"/>
<text text-anchor="middle" x="69.5328" y="-33.164" font-family="Arial" font-size="10.00">*</text>
</g>
</g>
</svg>
